HIERARCHY
ROOT Hips
{
  OFFSET 0 0 0
  CHANNELS 6 Xposition Yposition Zposition Zrotation Xrotation Yrotation
  JOINT Spine
  {
    OFFSET 0 10 0
    CHANNELS 3 Zrotation Xrotation Yrotation
    JOINT Neck
    {
      OFFSET 0 30 -6.70137e-005
      CHANNELS 3 Zrotation Xrotation Yrotation
      JOINT Head
      {
        OFFSET 0 7.99999 0
        CHANNELS 3 Zrotation Xrotation Yrotation
        End Site
        {
          OFFSET 0 10 0
        }
      }
    }
    JOINT LeftArm
    {
      OFFSET 15 30 0
      CHANNELS 3 Zrotation Xrotation Yrotation
      JOINT LeftForeArm
      {
        OFFSET 25 0 2.26341e-005
        CHANNELS 3 Zrotation Xrotation Yrotation
        JOINT LeftHand
        {
          OFFSET 25 0 -1.30187e-005
          CHANNELS 3 Zrotation Xrotation Yrotation
          End Site
          {
            OFFSET 10 0 0
          }
        }
      }
    }
    JOINT RightArm
    {
      OFFSET -15 30 0
      CHANNELS 3 Zrotation Xrotation Yrotation
      JOINT RightForeArm
      {
        OFFSET -25 -4.37399e-005 5.06614e-005
        CHANNELS 3 Zrotation Xrotation Yrotation
        JOINT RightHand
        {
          OFFSET -25 0 0
          CHANNELS 3 Zrotation Xrotation Yrotation
          End Site
          {
            OFFSET -10 0 0
          }
        }
      }
    }
  }
  JOINT LeftUpLeg
  {
    OFFSET 9.99999 -10 0
    CHANNELS 3 Zrotation Xrotation Yrotation
    JOINT LeftLeg
    {
      OFFSET 0.000185763 -35.0001 0.0027445
      CHANNELS 3 Zrotation Xrotation Yrotation
      JOINT LeftToe
      {
        OFFSET 0 -40.0001 0
        CHANNELS 3 Zrotation Xrotation Yrotation
        JOINT LeftToeEnd
        {
          OFFSET 0 0 0
          CHANNELS 3 Zrotation Xrotation Yrotation
          End Site
          {
            OFFSET 0 0 15
          }
        }
      }
    }
  }
  JOINT RightUpLeg
  {
    OFFSET -9.99999 -10 0
    CHANNELS 3 Zrotation Xrotation Yrotation
    JOINT RightLeg
    {
      OFFSET -0.000133699 -35 0.00119423
      CHANNELS 3 Zrotation Xrotation Yrotation
      JOINT RightToe
      {
        OFFSET 0 -40.0001 -1.54961e-005
        CHANNELS 3 Zrotation Xrotation Yrotation
        JOINT RightToeEnd
        {
          OFFSET 0 0 0
          CHANNELS 3 Zrotation Xrotation Yrotation
          End Site
          {
            OFFSET 0 0 15
          }
        }
      }
    }
  }
}
MOTION
Frames:	21
Frame Time:	0.0333333
3.93121 112.266 -31.8753 -2.85291 2.73994 4.18188 4.48172 4.1097 -0.645983 -3.7559 -11.7321 -3.82911 11.3322 35.2507 -9.97732 -84.9902 14.5483 36.2997 24.9488 -21.1887 -70.8681 -0.133889 -9.83632 -2.00305 97.2018 28.2184 -46.6611 -26.8524 -24.9991 71.4912 1.06021 -4.54333 -0.399183 0.250753 -14.3942 1.82782 1.43446 48.493 -1.13529 4.55887 26.3275 -10.0062 -1.98785e-016 -3.18055e-015 1.98785e-016 6.95348 -7.34491 -0.00155325 -0.688735 38.1927 0.0901941 5.23541 26.8827 -12.1971 -7.95139e-016 -3.18055e-015 1.19271e-015 
3.71769 113.757 -28.2931 -2.64176 2.03908 3.70324 4.12573 5.00446 -0.195239 -3.70714 -10.9908 -3.67274 11.7999 35.8587 -10.2233 -82.7884 13.0187 35.9382 24.0628 -20.0226 -66.8148 -0.427817 -8.84736 -1.93186 95.5247 28.3933 -45.0494 -26.6671 -23.783 68.021 0.957847 -6.15312 -0.34301 -0.178706 -16.2436 3.38117 1.28729 48.536 -1.09796 2.63311 20.3108 -7.18088 1.88845e-015 3.18055e-015 5.96354e-016 6.41717 -10.0639 -0.834472 -0.563828 37.8673 0.0936263 3.07552 22.9028 -9.02183 7.95139e-016 9.54166e-015 -7.95139e-016 
3.48824 114.209 -24.6778 -2.22546 1.29281 3.04035 3.52754 6.47847 0.23972 -3.59812 -10.9092 -3.26182 11.3211 35.8653 -9.49525 -81.0317 12.1438 34.7218 23.4692 -18.3054 -62.2248 -0.492399 -8.53501 -2.07102 93.8196 28.6914 -42.6329 -26.4781 -22.1365 64.0973 0.862915 -4.45292 -0.360007 -0.824972 -17.2929 3.61921 1.07619 46.1951 -0.989708 0.994519 14.2787 -3.97036 4.41391e-032 -6.36111e-015 3.97569e-016 5.52813 -12.6241 -0.479677 -0.424744 36.3214 0.0656321 1.27319 19.4488 -5.68117 3.97569e-016 -9.54166e-015 3.97569e-016 
3.24571 113.629 -20.9603 -2.57481 0.915645 2.57659 3.68776 7.41916 0.77605 -3.95006 -10.8276 -3.19129 11.8426 35.8055 -9.74774 -79.5841 11.8352 33.2366 22.6141 -16.3195 -57.6972 -0.540362 -8.53903 -2.16372 92.1163 29.1809 -39.5149 -25.9951 -19.7764 59.2523 0.814518 -3.36663 -0.269737 -0.50788 -18.6666 2.51458 0.81001 42.6036 -0.832211 0.276369 11.2631 -2.09676 -1.98785e-016 0 -0 5.48707 -15.0841 0.248211 -0.267625 33.5779 -0.00473447 0.257615 16.137 -3.62793 7.45443e-017 -3.18055e-015 9.93923e-017 
3.04134 111.992 -17.0736 -2.22912 0.881205 2.13668 3.00101 7.61703 1.16374 -3.87449 -10.9548 -3.04461 11.7803 36.5231 -9.82541 -78.4199 11.8787 31.9939 21.5538 -14.233 -53.3126 -0.567287 -6.87406 -2.29451 90.7636 30.3114 -36.7906 -25.1585 -17.3567 54.7051 0.780789 -4.37273 -0.221309 -0.802454 -20.2694 1.16257 0.493046 38.2729 -0.713752 0.432293 7.79238 -2.65473 -5.59082e-016 3.18055e-015 4.72114e-016 4.29786 -17.9762 0.0701683 -0.126822 31.2604 -0.152139 -0.25004 14.6101 -2.32207 2.64011e-017 3.18055e-015 -1.55301e-017 
2.80195 109.326 -13.2387 -2.32089 0.769323 1.62559 2.70676 8.14393 1.6559 -4.3072 -11.2359 -3.00344 12.2546 36.5932 -10.0002 -77.6855 12.1357 30.3295 20.2548 -12.3409 -49.284 -0.701431 -5.10088 -2.2376 89.5172 31.2726 -33.9892 -24.1792 -15.1944 50.7143 0.808379 -4.84173 -0.248431 -0.277407 -22.0561 0.16036 0.217055 34.4035 -0.596384 0.602256 7.26395 -3.23736 -5.96354e-016 9.54166e-015 -1.98785e-016 3.80187 -20.718 -0.210949 -0.0130957 29.1997 -0.321927 0.0616346 13.4103 -3.44569 -9.93923e-017 -3.18055e-015 -0 
2.4877 105.772 -9.32717 -2.29355 0.401714 1.34032 2.07545 8.45436 2.01557 -4.33908 -11.1158 -2.90864 12.5126 36.3857 -10.0021 -77.4741 12.4878 28.8666 19.441 -11.0505 -46.5626 -0.67395 -4.028 -2.38096 88.7663 31.924 -31.6883 -23.2348 -13.7333 47.8915 0.655093 -5.05635 -0.221045 0.233993 -23.754 -0.990017 0.0165213 31.2077 -0.49462 0.263327 8.19956 -2.13325 -4.96962e-016 3.18055e-015 3.97569e-016 3.22826 -22.8521 -1.07404 0.045988 27.7881 -0.490769 1.33441 13.1655 -7.44099 -3.97569e-016 0 -7.95139e-016 
2.18206 101.285 -5.33265 -1.96561 -0.422772 0.951671 1.00429 8.80807 2.62108 -4.96394 -10.6618 -3.10219 14.2497 36.0915 -11.0142 -77.5966 12.7013 27.7106 18.7647 -10.2233 -44.6692 -0.735825 -4.18634 -2.33318 88.7211 32.1975 -29.976 -22.4859 -12.6375 45.7266 0.600773 -3.06977 -0.238872 0.564958 -24.9541 -1.28161 -0.0976862 29.2064 -0.441391 0.497294 10.0522 -2.84737 -1.98785e-016 1.59028e-015 -7.95139e-016 2.48514 -24.1605 -1.72161 0.0745506 26.7968 -0.577237 1.50386 14.3139 -7.31036 3.97569e-016 3.18055e-015 -1.59028e-015 
1.86848 95.7627 -1.5328 -2.85669 -2.01172 1.01102 1.29278 9.77937 2.93857 -4.70985 -11.7062 -3.04072 14.2504 36.394 -11.0787 -78.3798 13.1681 26.85 18.5447 -9.89799 -43.8816 -0.764292 -5.1678 -2.34759 88.8556 32.5514 -28.6627 -22.2015 -12.24 44.885 0.558727 -1.92288 -0.274171 1.81026 -25.6473 -3.04563 -0.119753 29.9119 -0.453953 0.327687 8.12228 -2.38299 9.93923e-017 1.59028e-015 -0 3.43329 -24.1031 -1.16123 0.0750509 26.4966 -0.572046 0.635772 17.1959 -3.90828 1.98785e-016 3.18055e-015 -2.38542e-015 
1.58451 89.1727 2.05979 -4.1327 -4.63437 0.940466 2.03357 11.5679 3.14617 -5.0161 -12.1836 -3.17192 14.8823 34.3224 -11.1754 -79.3592 12.9964 25.3656 18.2515 -9.52315 -42.9138 -0.752344 -6.76946 -2.33941 89.3406 33.0864 -27.6218 -22.3 -12.3096 44.9646 0.605485 -1.00127 -0.305443 3.46548 -26.5254 -2.78462 0.00949943 35.4723 -0.489602 1.06354 6.75242 -4.86812 -5.96354e-016 0 -0 4.99703 -23.7175 -1.51048 0.0966783 31.3993 -0.341446 -1.89497 10.2617 1.49231 9.93923e-017 0 -0 
1.42304 82.8731 4.46855 -5.07647 -7.72289 1.94364 2.92553 14.4471 2.29311 -5.50904 -12.8342 -3.73976 15.1852 30.5721 -10.9172 -81.0876 12.1213 22.5258 17.9658 -9.02815 -41.6501 -0.785575 -7.59602 -2.36484 89.5484 32.3749 -24.8702 -22.2724 -12.1911 44.6022 0.605254 0.993588 -0.324901 3.87796 -29.0555 -1.9557 0.20889 49.6397 -0.65337 0.307299 -13.0916 -5.38415 -7.76503e-019 6.21202e-018 -1.59028e-015 6.6333 -24.3374 -1.89938 0.117591 44.9787 -0.220714 -2.04504 -12.3647 1.0465 -6.21202e-017 -2.98177e-016 -0 
0.826205 78.9966 6.37226 -3.40314 -7.61768 2.99333 -0.0617929 15.0758 1.66853 -5.3591 -15.8263 -4.56822 15.9872 29.7358 -11.1886 -80.7825 7.78347 14.6267 15.7472 -6.43694 -35.0966 -0.934203 -8.00752 -2.3791 89.4029 30.0768 -17.1744 -20.4397 -9.55868 39.0793 0.824568 0.752664 -0.371644 1.6653 -35.3385 -2.39897 0.014683 62.0573 -0.419026 0.67987 -19.2531 -2.91888 -6.51667e-023 0 -0 6.54941 -31.1392 -0.482693 0.749769 59.0707 -1.00584 -3.49255 -20.4308 -5.52005 5.82377e-018 2.48481e-017 -1.98785e-016 
0.700693 76.9084 8.18802 -4.62084 -10.1326 2.63993 1.5939 17.1239 1.79365 -6.56016 -15.575 -4.77754 16.7412 28.3263 -11.6077 -83.2478 -3.80813 5.73084 11.7796 -3.08617 -24.8134 -1.05576 -2.30131 -2.07541 89.0814 20.1032 -8.96525 -16.8544 -5.80813 30.0201 0.963724 3.30174 -0.343783 5.05185 -35.1903 0.548467 0.151053 69.2472 -0.381689 0.593521 -24.183 -3.6766 -1.18485e-023 7.58303e-022 9.93923e-017 8.35137 -30.7349 -0.812333 0.903092 65.7837 -1.12731 -4.71681 -24.1915 -7.88662 2.48481e-017 -1.98785e-016 -1.19271e-015 
0.646895 76.5288 9.91245 -3.3417 -10.3536 3.82663 0.323234 16.2612 1.47819 -6.55248 -15.9989 -5.21321 16.9313 29.155 -12.3232 -87.2832 -5.27504 1.30118 11.0946 -2.20333 -22.1576 -1.12729 -5.37469 -2.86823 91.5478 10.7392 -5.18149 -14.2231 -3.70262 23.8017 1.08659 5.69532 -0.290113 4.93966 -34.0997 2.32104 0.407242 70.402 -0.354153 0.688213 -26.4586 -5.39673 7.76503e-019 0 2.98177e-016 5.08769 -29.8302 -4.4188 0.889568 67.6193 -1.08066 -4.81577 -26.9689 -7.04301 6.21202e-018 1.98785e-016 -0 
0.64477 77.2877 11.5967 -3.94721 -9.46404 3.07929 0.961347 13.7523 2.19177 -6.50062 -16.0468 -5.20462 16.7652 29.1605 -12.8667 -90.2413 0.448543 0.970685 11.528 -2.6393 -23.0136 -1.10334 -4.57325 -2.34647 93.394 9.00246 -4.95697 -13.0548 -3.01531 21.311 0.99462 7.67199 -0.481105 6.81472 -32.6382 4.26267 0.546055 69.0482 -0.43175 0.368812 -27.4193 -6.13184 7.76503e-019 0 -1.98785e-016 5.4868 -28.1999 -5.06851 0.619047 65.4013 -0.768267 -4.63058 -27.2974 -6.31011 1.2424e-017 -9.93923e-017 7.95139e-016 
0.739134 79.0336 13.197 -3.24977 -8.98557 2.29102 0.455897 11.8969 2.97486 -6.64306 -16.2713 -5.13497 17.0823 29.3265 -13.105 -92.5776 9.91388 3.11873 14.0559 -4.16727 -28.3831 -1.05733 -5.67598 -2.89086 95.0887 8.21715 -6.20509 -13.4695 -3.2917 22.1993 0.915372 12.8819 -0.565877 5.30437 -28.6462 3.74569 0.83114 64.1079 -0.800423 0.368965 -26.7553 -4.85686 0 2.48481e-017 -0 5.52411 -24.7353 -3.58316 0.21832 60.8873 -0.274987 -4.57754 -26.709 -6.26118 -4.34841e-017 -3.97569e-016 1.59028e-015 
0.839673 80.9836 14.4981 -3.22555 -8.10665 1.89699 1.03919 9.73844 3.053 -6.66292 -16.059 -4.8798 16.424 28.6947 -12.5298 -94.0947 11.0781 2.82848 14.4175 -4.54502 -29.2048 -0.943918 -8.00631 -2.80346 95.6976 5.80793 -6.46493 -13.5629 -3.276 22.2489 1.05152 13.2428 -0.460212 3.6486 -25.009 1.35245 0.889355 58.3739 -1.05002 0.352728 -25.3884 -2.59838 -2.81402e-023 -3.79152e-022 -4.96962e-017 6.2081 -21.16 -2.12627 -0.0653393 54.8187 0.106045 -4.49001 -25.1193 -6.42454 -3.72721e-017 0 -1.59028e-015 
0.969185 82.8339 15.8096 -3.05393 -7.32143 1.6608 1.59358 7.45094 2.58693 -6.93916 -15.9963 -4.64535 16.0739 29.1473 -11.8578 -95.0559 10.9978 3.3223 14.4814 -4.53322 -29.2375 -0.992104 -9.646 -2.93836 95.5601 2.88458 -7.00798 -13.4399 -3.13709 21.9973 1.24897 9.86403 -0.814606 2.00855 -21.1716 -1.10582 0.878372 52.2813 -1.14008 0.475158 -23.8703 -0.369005 1.92538e-022 1.51661e-021 4.96962e-017 6.34686 -17.4157 -1.13407 -0.238133 48.4066 0.394707 -4.3323 -23.2728 -6.59563 1.86361e-017 -9.93923e-017 7.95139e-016 
0.992666 84.3763 16.8888 -2.96628 -6.47958 0.807523 2.03107 5.74837 2.48722 -6.87289 -16.7685 -4.38257 15.4929 29.8609 -11.2443 -94.8858 12.2972 3.55648 14.5082 -4.54645 -29.3088 -0.980678 -7.59205 -2.92165 94.91 2.11858 -6.93475 -13.2236 -3.04472 21.646 1.09403 5.9265 -0.75189 1.27454 -17.7451 -2.52518 0.805998 46.5006 -1.10856 0.475923 -22.2704 0.935686 -2.10471e-038 6.06643e-021 1.98785e-016 6.46064 -14.0217 0.102005 -0.314458 42.3968 0.603359 -3.92829 -21.3616 -6.04388 -6.83322e-017 -1.98785e-016 -3.97569e-016 
1.01307 85.4697 17.843 -2.23027 -5.44599 0.236715 1.74582 4.18146 2.15075 -6.70281 -16.8662 -4.18672 14.8748 29.0976 -10.4573 -93.828 14.8224 4.27881 14.6774 -4.81208 -29.9765 -0.809494 -4.55878 -2.75689 94.0947 3.57042 -7.15123 -13.3265 -3.16933 22.0041 0.927452 4.07015 -0.687187 0.351285 -15.1785 -2.95104 0.698279 41.5034 -0.993707 0.601431 -20.8176 1.36746 1.89576e-022 1.51661e-021 3.97569e-016 5.4493 -11.7173 0.454586 -0.322092 37.6202 0.717816 -3.41951 -20.1797 -4.723 -1.78596e-017 0 -3.97569e-016 
0.918273 86.1781 18.6075 -2.24711 -4.54052 -0.813234 2.1287 3.17386 1.88048 -6.29487 -17.5292 -3.91514 13.9587 28.8488 -9.4812 -92.3489 17.8331 5.15294 15.0599 -5.24059 -31.1554 -0.713392 -1.92949 -2.63541 92.9707 7.21535 -6.90555 -13.4899 -3.30322 22.4357 0.920888 4.16574 -0.670142 0.861267 -13.6512 -1.94556 0.604493 38.2075 -0.922479 0.484871 -19.9498 1.05931 3.79152e-022 7.58303e-022 7.95139e-016 5.48817 -10.1354 1.16631 -0.292792 33.7755 0.77213 -3.12416 -18.872 -3.7735 1.94126e-019 0 -3.97569e-016 
